M48
;DRILL file {KiCad 4.0.2-1.fc23-product} date ma 30. toukokuuta 2016 17.50.49
;FORMAT={-:-/ absolute / metric / decimal}
FMAT,2
METRIC,TZ
T1C0.762
T2C0.800
T3C1.000
T4C1.001
T5C1.016
T6C1.270
T7C2.500
%
G90
G05
M71
T1
X135.89Y-100.965
X135.89Y-103.505
X135.89Y-106.045
X135.89Y-108.585
X135.89Y-111.125
X135.89Y-113.665
X135.89Y-116.205
X135.89Y-118.745
X135.89Y-121.285
X135.89Y-123.825
X135.89Y-126.365
X135.89Y-128.905
T2
X104.8Y-105.4
X104.8Y-111.
X106.997Y-150.177
X106.997Y-155.177
X106.997Y-159.067
X106.997Y-164.067
X114.Y-126.
X114.Y-131.
X114.Y-136.
X114.Y-138.5
X116.Y-109.
X116.Y-114.
X119.38Y-101.6
X119.38Y-104.14
X119.38Y-106.68
X119.38Y-109.22
X119.38Y-111.76
X119.38Y-114.3
X119.38Y-116.84
X119.38Y-119.38
X119.38Y-121.92
X119.38Y-124.46
X119.38Y-127.
X119.38Y-129.54
X119.38Y-132.08
X119.38Y-134.62
X120.015Y-150.495
X120.015Y-155.495
X120.015Y-159.385
X120.015Y-164.385
X127.Y-101.6
X127.Y-104.14
X127.Y-106.68
X127.Y-109.22
X127.Y-111.76
X127.Y-114.3
X127.Y-116.84
X127.Y-119.38
X127.Y-121.92
X127.Y-124.46
X127.Y-127.
X127.Y-129.54
X127.Y-132.08
X127.Y-134.62
X131.2Y-126.6
X131.4Y-144.4
X132.398Y-150.177
X132.398Y-155.177
X132.398Y-159.067
X132.398Y-164.067
T3
X109.Y-130.
X109.Y-137.
X112.078Y-144.463
X112.078Y-147.002
X112.078Y-149.542
X112.078Y-152.082
X112.078Y-154.623
X112.078Y-157.162
X112.078Y-159.702
X112.078Y-162.243
X112.078Y-164.782
X115.5Y-157.5
X115.5Y-162.
X116.Y-117.
X116.Y-122.
X116.4Y-168.
X116.4Y-176.2
X119.25Y-138.
X124.777Y-144.463
X124.777Y-147.002
X124.777Y-149.542
X124.777Y-152.082
X124.777Y-154.623
X124.777Y-157.162
X124.777Y-159.702
X124.777Y-162.243
X124.777Y-164.782
X127.25Y-138.
X127.25Y-156.5
X127.25Y-162.25
X129.2Y-138.
X129.2Y-154.2
X129.4Y-168.
X129.4Y-176.2
X133.Y-119.4
X133.2Y-97.6
X133.2Y-101.
X133.2Y-138.
X136.843Y-144.463
X136.843Y-147.002
X136.843Y-149.542
X136.843Y-152.082
X136.843Y-154.623
X136.843Y-157.162
X136.843Y-159.702
X136.843Y-162.243
X136.843Y-164.782
X140.25Y-144.5
X140.25Y-149.5
X140.25Y-157.
X140.4Y-162.2
T4
X104.14Y-101.6
X106.045Y-132.08
X106.045Y-134.62
X106.045Y-137.16
X106.68Y-101.6
X109.893Y-101.6
X114.894Y-101.6
T5
X105.41Y-121.285
X105.41Y-123.825
X108.46Y-108.92
X108.46Y-111.46
X108.46Y-114.
X111.Y-108.92
X111.Y-111.46
X111.Y-114.
T6
X106.997Y-171.767
X112.078Y-171.767
X119.697Y-171.767
X124.777Y-171.767
X131.762Y-171.767
X136.843Y-171.767
T7
X100.25Y-173.25
X100.75Y-96.75
X144.75Y-97.
X144.75Y-173.
T0
M30
